<svg height="512pt" viewBox="0 -1 512 512" width="512pt" xmlns="http://www.w3.org/2000/svg"><g fill="#67c1b0"><path d="m354.050781 403.578125c0-54.265625-77.550781-98.253906-173.214843-98.253906-95.667969 0-173.21875 43.988281-173.21875 98.253906 0 54.261719 77.550781 98.253906 173.21875 98.253906 95.664062 0 173.214843-43.992187 173.214843-98.253906zm0 0"/><path d="m504.382812 205.878906c0-44.230468-63.210937-80.085937-141.1875-80.085937-77.980468 0-141.191406 35.855469-141.191406 80.085937 0 44.230469 63.210938 80.085938 141.191406 80.085938 77.976563 0 141.1875-35.855469 141.1875-80.085938zm0 0"/><path d="m74.925781 169.753906c-18.539062 9.855469-31.164062 29.355469-31.164062 51.8125 0 .703125.011719 1.402344.035156 2.097656 1.382813 39.40625 60.875 39.40625 62.261719 0 .023437-.695312.035156-1.394531.035156-2.097656 0-22.457031-12.628906-41.957031-31.167969-51.8125zm0 0"/></g><path d="m74.964844 255.320312c-15.214844 0-30.4375-9.851562-31.128906-29.5625-.03125-.691406-.039063-1.394531-.039063-2.09375 0-22.453124 12.632813-41.964843 31.167969-51.816406-7.34375 9.851563-12.347656 29.363282-12.347656 51.816406 0 .699219 0 1.402344.007812 2.09375.273438 19.710938 6.308594 29.5625 12.339844 29.5625zm0 0" fill="#51a2af"/><path d="m183.433594 5.523438c-18.539063 9.851562-31.167969 29.351562-31.167969 51.8125 0 .699218.011719 1.398437.035156 2.09375 1.386719 39.40625 60.875 39.40625 62.261719 0 .023438-.695313.035156-1.394532.035156-2.09375 0-22.460938-12.628906-41.960938-31.164062-51.8125zm0 0" fill="#67c1b0"/><path d="m183.46875 91.085938c-15.210938 0-30.4375-9.847657-31.128906-29.5625-.027344-.691407-.039063-1.390626-.039063-2.089844 0-22.457032 12.632813-41.964844 31.167969-51.816406-7.34375 9.851562-12.347656 29.359374-12.347656 51.816406 0 .699218 0 1.398437.007812 2.089844.277344 19.714843 6.308594 29.5625 12.339844 29.5625zm0 0" fill="#51a2af"/><path d="m433.105469 12.695312c-18.539063 9.851563-31.167969 29.351563-31.167969 51.808594 0 .703125.015625 1.402344.039062 2.097656 1.382813 39.40625 60.875 39.40625 62.261719 0 .023438-.695312.035157-1.394531.035157-2.097656 0-22.457031-12.628907-41.957031-31.167969-51.808594zm0 0" fill="#67c1b0"/><path d="m433.144531 98.257812c-15.214843 0-30.4375-9.851562-31.128906-29.5625-.03125-.691406-.039063-1.390624-.039063-2.09375 0-22.453124 12.632813-41.960937 31.167969-51.8125-7.34375 9.851563-12.351562 29.359376-12.351562 51.8125 0 .703126 0 1.402344.011719 2.09375.273437 19.710938 6.308593 29.5625 12.339843 29.5625zm0 0" fill="#51a2af"/><path d="m180.835938 494.214844c-44.972657 0-87.136719-9.867188-118.726563-27.789063-30.226563-17.144531-46.875-39.464843-46.875-62.847656 0-18.238281 10.164063-35.929687 29.394531-51.164063 3.296875-2.613281 3.851563-7.402343 1.238282-10.699218-2.613282-3.300782-7.402344-3.855469-10.699219-1.242188-23.007813 18.226563-35.167969 40.046875-35.167969 63.105469 0 29.105469 19.386719 56.128906 54.59375 76.101563 33.84375 19.195312 78.675781 29.769531 126.242188 29.769531 4.203124 0 7.613281-3.410157 7.613281-7.617188s-3.410157-7.617187-7.613281-7.617187zm0 0"/><path d="m307.074219 327.476562c-33.84375-19.199218-78.675781-29.769531-126.242188-29.769531-28.738281 0-57.320312 3.988281-82.644531 11.539063-4.03125 1.203125-6.328125 5.445312-5.125 9.476562s5.445312 6.324219 9.476562 5.125c23.933594-7.136718 51.007813-10.90625 78.292969-10.90625 44.972657 0 87.136719 9.867188 118.726563 27.785156 30.226562 17.144532 46.875 39.464844 46.875 62.847657 0 17.601562-9.519532 34.777343-27.535156 49.664062-18.453126 15.25-44.292969 27.007813-74.734376 34.007813-4.101562.941406-6.660156 5.03125-5.714843 9.128906.808593 3.527344 3.945312 5.914062 7.414062 5.914062.566407 0 1.140625-.066406 1.714844-.195312 69.308594-15.9375 114.089844-54.609375 114.089844-98.515625 0-29.105469-19.386719-56.132813-54.59375-76.101563zm0 0"/><path d="m180.835938 457.878906c-22.746094 0-44.300782-4.042968-62.339844-11.695312-3.871094-1.644532-8.34375.164062-9.988282 4.039062-1.640624 3.871094.164063 8.34375 4.039063 9.984375 19.90625 8.445313 43.519531 12.90625 68.289063 12.90625 30.453124 0 59.199218-6.792969 80.945312-19.128906 23.105469-13.105469 35.832031-31.007813 35.832031-50.40625 0-5.601563-1.089843-11.167969-3.234375-16.546875-1.558594-3.910156-5.988281-5.8125-9.894531-4.253906s-5.8125 5.992187-4.253906 9.898437c1.425781 3.574219 2.148437 7.238281 2.148437 10.898438 0 29.4375-46.503906 54.304687-101.542968 54.304687zm0 0"/><path d="m254.984375 349.605469c-20.730469-10.039063-47.066406-15.566407-74.152344-15.566407-30.453125 0-59.199219 6.792969-80.945312 19.128907-23.105469 13.105469-35.832031 31.007812-35.832031 50.40625 0 10.046875 3.402343 19.695312 10.109374 28.683593 1.496094 2.003907 3.785157 3.058594 6.109376 3.058594 1.582031 0 3.183593-.492187 4.546874-1.511718 3.371094-2.515626 4.066407-7.289063 1.550782-10.660157-4.699219-6.296875-7.082032-12.878906-7.082032-19.570312 0-29.433594 46.5-54.300781 101.542969-54.300781 24.835938 0 48.8125 4.988281 67.515625 14.042968 3.78125 1.832032 8.339844.25 10.175782-3.535156 1.832031-3.789062.25-8.34375-3.539063-10.175781zm0 0"/><path d="m180.835938 387.324219c9.796874 0 19.273437 2.1875 25.996093 6 3.660157 2.074219 8.308594.792969 10.382813-2.867188 2.074218-3.660156.792968-8.308593-2.867188-10.382812-9.074218-5.148438-20.976562-7.984375-33.511718-7.984375-27.867188 0-49.699219 13.832031-49.699219 31.484375 0 17.65625 21.832031 31.488281 49.699219 31.488281 12.535156 0 24.4375-2.835938 33.511718-7.984375 3.660156-2.074219 4.941406-6.722656 2.867188-10.382813-2.074219-3.660156-6.726563-4.945312-10.382813-2.867187-6.722656 3.8125-16.199219 6-25.996093 6-19.726563 0-34.464844-8.582031-34.464844-16.253906 0-7.667969 14.738281-16.25 34.464844-16.25zm0 0"/><path d="m466.789062 142.625c-27.796874-15.765625-64.585937-24.449219-103.59375-24.449219-4.207031 0-7.617187 3.410157-7.617187 7.617188s3.410156 7.617187 7.617187 7.617187c36.414063 0 70.535157 7.980469 96.078126 22.464844 24.175781 13.714844 37.492187 31.472656 37.492187 50.007812 0 18.0625-12.542969 31.894532-23.066406 40.3125-3.285157 2.628907-3.816407 7.421876-1.191407 10.707032 1.507813 1.882812 3.71875 2.859375 5.953126 2.859375 1.667968 0 3.351562-.546875 4.753906-1.671875 18.832031-15.066406 28.785156-33.121094 28.785156-52.210938 0-24.25-16.054688-46.714844-45.210938-63.253906zm0 0"/><path d="m415.25 272.53125c-16.5 3.859375-34.015625 5.816406-52.054688 5.816406-36.417968 0-70.539062-7.976562-96.078124-22.464844-24.179688-13.710937-37.496094-31.472656-37.496094-50.003906 0-12.796875 6.496094-25.472656 18.78125-36.660156 12.683594-11.542969 30.8125-20.980469 52.433594-27.289062 4.039062-1.179688 6.355468-5.40625 5.179687-9.445313-1.179687-4.039063-5.410156-6.359375-9.445313-5.179687-50.695312 14.792968-82.183593 44.898437-82.183593 78.578124 0 24.25 16.058593 46.714844 45.210937 63.253907 27.796875 15.765625 64.585938 24.449219 103.59375 24.449219 19.210938 0 37.890625-2.09375 55.527344-6.21875 4.097656-.957032 6.640625-5.058594 5.683594-9.152344-.957032-4.097656-5.054688-6.644532-9.152344-5.683594zm0 0"/><path d="m358.171875 217.71875c-7.753906 0-15.222656-1.714844-20.496094-4.707031-3.660156-2.074219-8.308593-.789063-10.382812 2.867187-2.078125 3.660156-.792969 8.308594 2.867187 10.382813 7.605469 4.316406 17.554688 6.691406 28.011719 6.691406 23.503906 0 41.914063-11.890625 41.914063-27.074219 0-15.179687-18.410157-27.070312-41.914063-27.070312-10.457031 0-20.40625 2.375-28.011719 6.6875-3.660156 2.074218-4.945312 6.726562-2.867187 10.382812 2.074219 3.660156 6.726562 4.945313 10.382812 2.867188 5.273438-2.988282 12.742188-4.703125 20.496094-4.703125 16.289063 0 26.679687 7.011719 26.679687 11.835937 0 4.828125-10.394531 11.839844-26.679687 11.839844zm0 0"/><path d="m333.445312 166.078125c9.484376-2.023437 19.492188-3.050781 29.75-3.050781 22.46875 0 43.480469 4.898437 59.160157 13.789062 1.183593.675782 2.476562.992188 3.75.992188 2.652343 0 5.226562-1.386719 6.628906-3.859375 2.078125-3.660157.792969-8.308594-2.863281-10.382813-17.933594-10.171875-41.613282-15.773437-66.675782-15.773437-11.324218 0-22.402343 1.140625-32.929687 3.386719-4.113281.878906-6.738281 4.925781-5.859375 9.039062s4.921875 6.738281 9.039062 5.859375zm0 0"/><path d="m440.625 180.128906c-3.371094 2.511719-4.066406 7.285156-1.550781 10.660156 3.636719 4.875 5.480469 9.953126 5.480469 15.089844 0 23.230469-37.257813 42.855469-81.359376 42.855469-44.105468 0-81.363281-19.625-81.363281-42.855469 0-4.207031-3.410156-7.617187-7.617187-7.617187-4.207032 0-7.617188 3.410156-7.617188 7.617187 0 32.574219 42.429688 58.089844 96.597656 58.089844 54.164063 0 96.59375-25.515625 96.59375-58.089844 0-8.488281-2.863281-16.632812-8.503906-24.199218-2.515625-3.371094-7.285156-4.066407-10.660156-1.550782zm0 0"/><path d="m74.964844 262.929688c18.609375 0 37.890625-12.675782 38.742187-36.902344.027344-.785156.042969-1.574219.042969-2.367188 0-24.566406-13.492188-46.996094-35.210938-58.539062-2.234374-1.1875-4.914062-1.1875-7.148437 0-21.71875 11.542968-35.210937 33.976562-35.210937 58.539062 0 .792969.015624 1.578125.042968 2.363282.851563 24.230468 20.132813 36.90625 38.742188 36.90625zm0-82.269532c14.625 9.347656 23.550781 25.46875 23.550781 43 0 .609375-.011719 1.21875-.03125 1.828125-.539063 15.339844-12.203125 22.207031-23.519531 22.207031s-22.980469-6.867187-23.519532-22.207031c-.019531-.605469-.03125-1.214843-.03125-1.828125 0-17.53125 8.925782-33.652344 23.550782-43zm0 0"/><path d="m183.46875 98.699219c18.609375 0 37.890625-12.679688 38.742188-36.90625.027343-.785157.042968-1.574219.042968-2.363281 0-24.566407-13.492187-46.996094-35.210937-58.539063-2.234375-1.1875-4.914063-1.1875-7.148438 0-21.71875 11.542969-35.210937 33.972656-35.210937 58.539063 0 .789062.015625 1.578124.042968 2.363281.851563 24.226562 20.136719 36.90625 38.742188 36.90625zm0-82.269531c14.625 9.347656 23.550781 25.46875 23.550781 43 0 .613281-.011719 1.222656-.03125 1.828124-.539062 15.339844-12.199219 22.207032-23.519531 22.207032-11.316406 0-22.980469-6.867188-23.519531-22.207032-.019531-.605468-.03125-1.214843-.03125-1.828124 0-17.53125 8.929687-33.65625 23.550781-43zm0 0"/><path d="m433.144531 105.867188c18.609375 0 37.890625-12.675782 38.742188-36.898438.027343-.785156.042969-1.578125.042969-2.371094 0-24.5625-13.492188-46.996094-35.210938-58.535156-2.234375-1.191406-4.914062-1.191406-7.148438 0-21.71875 11.539062-35.210937 33.972656-35.210937 58.535156 0 .792969.015625 1.578125.042969 2.367188.851562 24.226562 20.132812 36.902344 38.742187 36.902344zm0-82.265626c14.625 9.34375 23.550781 25.46875 23.550781 42.996094 0 .613282-.011718 1.222656-.03125 1.832032-.539062 15.339843-12.199218 22.203124-23.519531 22.203124-11.316406 0-22.980469-6.867187-23.519531-22.203124-.019531-.605469-.03125-1.21875-.03125-1.832032 0-17.527344 8.925781-33.648437 23.550781-42.996094zm0 0"/></svg>