 <svg version="1.0" xmlns="http://www.w3.org/2000/svg" width="700.000000pt" height="700.000000pt" viewBox="0 0 700.000000 700.000000" preserveAspectRatio="xMidYMid meet">
<metadata>
Created by potrace 1.12, written by Peter Selinger 2001-2015
</metadata>
<g transform="translate(0.000000,700.000000) scale(0.100000,-0.100000)" fill="#000000" stroke="none">
<path d="M3000 6882 c-23 -13 -67 -21 -128 -25 -72 -5 -100 -12 -119 -27 -20
-15 -41 -20 -88 -20 -49 0 -68 -5 -90 -22 -19 -14 -46 -23 -84 -26 -34 -2 -61
-10 -68 -19 -7 -9 -33 -19 -58 -24 -26 -5 -58 -18 -72 -29 -14 -11 -39 -20
-55 -20 -18 0 -43 -11 -60 -25 -16 -14 -42 -25 -57 -25 -15 0 -36 -8 -45 -19
-9 -10 -34 -21 -54 -25 -20 -3 -45 -15 -54 -26 -10 -11 -26 -20 -36 -20 -10 0
-33 -11 -52 -25 -19 -14 -39 -25 -45 -25 -7 0 -20 -9 -30 -20 -10 -11 -27 -20
-37 -20 -10 0 -29 -11 -41 -23 -12 -13 -34 -27 -49 -31 -15 -3 -32 -15 -38
-26 -6 -11 -19 -20 -30 -20 -11 0 -24 -9 -30 -20 -6 -11 -22 -23 -36 -26 -13
-3 -29 -15 -35 -25 -5 -11 -16 -19 -23 -19 -7 0 -23 -11 -36 -25 -13 -14 -30
-25 -37 -25 -8 0 -16 -7 -20 -15 -3 -9 -17 -22 -32 -30 -14 -7 -45 -32 -68
-54 -23 -23 -45 -41 -48 -41 -8 0 -305 -297 -305 -305 0 -4 -11 -18 -25 -33
-21 -23 -87 -105 -183 -232 -11 -14 -22 -35 -26 -48 -4 -12 -16 -27 -27 -32
-10 -6 -19 -17 -19 -24 0 -7 -9 -21 -20 -31 -10 -9 -24 -32 -30 -50 -6 -18
-17 -36 -25 -38 -7 -3 -16 -19 -20 -36 -4 -17 -15 -36 -26 -41 -12 -7 -19 -21
-19 -39 0 -16 -10 -37 -25 -51 -14 -13 -25 -34 -25 -47 0 -13 -9 -31 -20 -41
-11 -9 -23 -34 -27 -55 -3 -22 -13 -42 -24 -48 -13 -6 -19 -21 -19 -44 0 -22
-8 -41 -21 -54 -12 -11 -23 -37 -26 -63 -3 -23 -14 -52 -24 -64 -10 -11 -22
-42 -25 -70 -4 -27 -15 -58 -24 -69 -11 -12 -19 -42 -22 -77 -3 -35 -11 -65
-22 -77 -11 -12 -20 -46 -25 -100 -6 -54 -14 -88 -26 -101 -14 -16 -18 -46
-22 -172 -4 -109 -10 -163 -21 -188 -13 -28 -17 -85 -20 -300 -3 -232 -1 -271
14 -310 12 -32 19 -92 24 -202 5 -129 10 -161 24 -177 11 -12 20 -46 25 -99 6
-53 16 -92 30 -115 14 -23 21 -51 21 -84 0 -36 5 -55 19 -67 12 -11 21 -38 26
-71 4 -33 13 -59 26 -71 11 -10 19 -30 19 -49 0 -18 11 -46 25 -65 15 -20 25
-47 25 -67 0 -21 6 -36 19 -42 10 -6 22 -27 26 -48 4 -21 15 -46 26 -56 10
-10 19 -31 19 -46 0 -20 8 -34 25 -45 17 -11 25 -26 25 -46 0 -19 7 -33 20
-40 11 -6 20 -17 20 -25 0 -7 11 -27 25 -43 14 -17 25 -36 25 -44 0 -8 11 -25
25 -38 14 -13 25 -30 25 -38 0 -8 10 -27 22 -43 13 -15 43 -56 68 -90 25 -33
55 -71 67 -84 13 -12 23 -27 23 -34 0 -6 22 -33 50 -61 27 -28 50 -54 50 -58
0 -4 22 -29 48 -57 26 -27 51 -58 55 -67 3 -10 13 -18 21 -18 8 0 18 -9 21
-20 3 -11 10 -20 14 -20 5 0 43 -33 86 -72 42 -40 87 -78 100 -85 12 -7 25
-19 29 -28 3 -8 10 -15 16 -15 6 0 32 -20 58 -45 26 -25 50 -45 53 -45 4 0 31
-20 61 -44 29 -23 63 -46 76 -50 12 -4 27 -16 32 -27 6 -10 17 -19 25 -19 7 0
27 -11 43 -25 17 -14 35 -25 42 -25 7 0 25 -11 42 -25 16 -14 35 -25 42 -25 7
0 21 -9 31 -20 10 -11 28 -20 40 -20 12 0 32 -11 45 -25 14 -15 35 -25 50 -25
15 0 35 -9 45 -20 10 -11 36 -23 57 -26 23 -4 43 -14 49 -25 6 -13 21 -19 42
-19 20 0 47 -10 67 -25 20 -15 47 -25 67 -25 18 0 40 -8 50 -19 10 -10 39 -21
68 -25 28 -3 61 -14 75 -24 14 -11 52 -22 89 -25 36 -4 72 -14 82 -23 11 -10
48 -18 103 -23 57 -6 93 -14 104 -24 15 -13 56 -19 203 -26 116 -6 197 -15
219 -24 45 -18 423 -17 457 1 12 6 99 17 195 23 119 7 178 15 188 25 9 7 58
18 110 24 58 7 101 17 111 26 10 9 45 18 81 21 38 4 73 14 88 25 14 10 48 21
75 24 29 4 58 15 68 25 10 11 32 19 51 19 19 0 45 9 60 21 15 12 45 23 67 26
23 4 44 13 49 23 5 10 26 21 47 25 21 4 46 15 56 26 10 10 29 19 44 19 15 0
36 11 49 25 13 14 32 25 42 25 10 0 27 9 37 20 10 11 26 20 36 20 10 0 31 11
47 25 17 14 34 25 40 25 5 0 16 7 23 17 8 9 28 22 44 30 17 7 50 29 75 48 25
19 57 40 73 46 15 6 32 20 38 30 5 10 17 19 25 19 9 0 28 12 43 28 66 65 120
112 130 112 6 0 18 11 27 25 9 14 21 25 26 25 6 0 29 20 52 45 24 25 48 45 55
45 6 0 15 8 18 18 4 9 25 35 48 57 50 49 145 160 145 170 0 4 20 26 45 49 25
24 45 46 45 51 0 4 11 20 25 37 14 16 25 36 25 43 0 8 9 19 20 25 11 6 20 17
20 24 0 7 11 23 25 36 14 13 25 29 25 36 0 7 11 26 25 42 14 17 25 34 25 39 0
6 9 18 19 27 11 10 23 31 26 47 4 16 15 34 26 39 11 6 19 21 19 36 0 14 11 35
25 48 14 13 25 34 25 48 0 14 9 33 20 43 11 10 22 33 26 52 3 18 15 38 25 44
13 6 19 21 19 42 0 20 10 47 25 67 14 19 25 46 25 61 0 14 9 37 19 51 11 13
22 45 26 71 4 26 15 57 25 70 9 12 19 46 22 75 3 31 13 60 24 73 15 16 20 43
25 113 4 65 11 100 24 120 15 22 20 56 25 155 5 89 12 135 23 156 15 26 17 72
17 368 0 311 -2 341 -19 375 -14 28 -20 66 -23 159 -3 101 -7 126 -22 142 -14
16 -20 44 -25 115 -5 70 -11 99 -24 114 -11 12 -20 43 -24 78 -4 36 -12 65
-23 75 -9 10 -20 40 -23 69 -4 34 -14 60 -27 72 -12 11 -20 32 -20 50 0 18 -9
41 -21 54 -11 12 -23 41 -26 63 -4 26 -13 45 -24 52 -11 6 -21 26 -25 49 -4
21 -15 47 -25 56 -11 9 -19 27 -19 39 0 12 -11 32 -25 45 -14 13 -25 33 -25
45 0 12 -9 30 -20 40 -11 10 -20 24 -20 31 0 7 -11 25 -24 41 -13 15 -26 38
-30 49 -4 12 -15 29 -26 39 -11 10 -20 24 -20 31 0 7 -9 18 -19 24 -11 5 -22
23 -26 40 -4 17 -15 35 -26 40 -10 6 -19 17 -19 25 0 8 -9 19 -20 25 -12 6
-25 21 -31 33 -14 32 -58 91 -75 100 -8 4 -14 12 -14 17 0 27 -405 426 -464
457 -13 7 -26 19 -30 28 -3 8 -11 15 -19 15 -7 0 -24 11 -37 25 -13 14 -29 25
-36 25 -7 0 -18 9 -24 20 -6 11 -17 20 -25 20 -7 0 -27 11 -43 25 -17 14 -34
25 -39 25 -5 0 -20 11 -33 25 -13 14 -31 25 -40 25 -9 0 -27 11 -40 25 -13 14
-31 25 -40 25 -9 0 -25 9 -34 19 -10 11 -31 23 -46 26 -15 3 -36 15 -46 26 -9
10 -25 19 -35 19 -10 0 -26 8 -36 19 -10 10 -34 22 -53 26 -19 4 -44 15 -55
25 -11 10 -36 20 -56 24 -20 3 -44 15 -54 26 -11 12 -31 20 -50 20 -18 0 -43
8 -56 19 -13 10 -44 22 -69 26 -25 4 -54 15 -65 25 -12 10 -44 20 -78 23 -32
3 -70 13 -84 22 -14 9 -55 21 -91 26 -37 5 -77 16 -90 25 -13 9 -58 17 -110
21 -55 4 -100 13 -122 25 -32 17 -67 18 -505 18 -438 0 -473 -1 -505 -18z
m851 -129 c16 -13 156 -33 234 -33 32 0 60 -6 75 -17 16 -12 53 -20 102 -24
51 -3 84 -11 96 -22 10 -9 49 -21 87 -26 41 -6 72 -16 77 -24 4 -8 31 -18 62
-21 34 -5 60 -14 72 -27 10 -11 30 -19 49 -19 18 0 44 -9 57 -20 14 -10 45
-24 68 -29 24 -5 47 -17 52 -25 5 -8 24 -18 43 -22 18 -3 41 -15 51 -25 9 -10
26 -19 37 -19 10 0 32 -11 49 -25 16 -14 37 -25 47 -25 10 0 26 -9 35 -19 10
-11 31 -23 47 -26 16 -4 34 -15 39 -26 6 -10 16 -19 22 -19 6 0 36 -17 66 -37
30 -21 65 -45 77 -53 45 -30 78 -55 100 -77 12 -13 26 -23 30 -23 8 0 17 -8
76 -65 15 -14 30 -25 35 -25 17 0 344 -329 344 -346 0 -3 20 -26 45 -52 25
-26 45 -52 45 -59 0 -7 9 -17 20 -23 12 -6 25 -21 31 -33 14 -32 58 -91 75
-100 8 -4 14 -16 14 -26 0 -10 11 -28 25 -41 14 -13 25 -32 25 -41 0 -10 9
-23 19 -29 11 -5 22 -23 26 -40 4 -17 15 -35 26 -40 10 -6 19 -21 19 -34 0
-12 11 -33 25 -46 14 -13 25 -33 25 -45 0 -12 8 -30 19 -39 10 -9 21 -31 25
-47 3 -17 15 -42 26 -56 11 -14 20 -38 20 -53 0 -17 8 -33 21 -41 13 -9 22
-29 26 -59 3 -25 14 -53 24 -62 10 -10 20 -40 24 -73 5 -33 13 -59 23 -64 9
-5 17 -29 20 -62 3 -31 13 -65 25 -80 13 -18 21 -49 24 -95 3 -41 13 -81 24
-100 14 -22 20 -60 25 -145 5 -83 11 -119 23 -133 14 -16 16 -64 16 -416 0
-354 -2 -400 -16 -416 -12 -14 -19 -53 -26 -136 -7 -81 -14 -123 -25 -135 -10
-11 -17 -46 -20 -91 -4 -49 -11 -79 -22 -91 -10 -11 -21 -47 -26 -81 -5 -34
-15 -67 -23 -73 -8 -7 -18 -34 -22 -60 -4 -29 -14 -55 -26 -65 -12 -10 -19
-29 -19 -50 0 -22 -9 -45 -25 -64 -14 -16 -25 -42 -25 -58 0 -16 -8 -37 -19
-47 -10 -10 -21 -31 -25 -47 -4 -17 -16 -42 -27 -57 -10 -15 -19 -32 -19 -39
0 -7 -11 -25 -25 -42 -14 -16 -25 -37 -25 -47 0 -10 -9 -26 -19 -35 -11 -10
-23 -31 -26 -47 -4 -16 -15 -34 -26 -39 -10 -6 -19 -17 -19 -24 0 -7 -11 -23
-25 -36 -14 -13 -25 -31 -25 -40 0 -9 -11 -27 -25 -40 -14 -13 -25 -29 -25
-36 0 -7 -9 -18 -20 -24 -11 -6 -20 -16 -20 -21 0 -6 -23 -37 -50 -69 -28 -32
-50 -61 -50 -65 0 -4 -21 -28 -47 -54 -27 -26 -70 -73 -98 -104 -27 -31 -56
-57 -63 -57 -7 0 -16 -8 -20 -18 -4 -10 -36 -45 -72 -77 -35 -33 -80 -75 -100
-93 -19 -19 -47 -40 -61 -47 -15 -8 -29 -21 -32 -30 -4 -8 -12 -15 -20 -15 -7
0 -24 -11 -37 -25 -13 -14 -28 -25 -33 -25 -5 0 -20 -11 -33 -25 -13 -14 -32
-25 -43 -25 -11 0 -25 -9 -31 -20 -6 -11 -17 -20 -24 -20 -7 0 -23 -11 -36
-25 -13 -14 -29 -25 -36 -25 -7 0 -26 -11 -42 -25 -17 -14 -39 -25 -51 -25
-11 0 -25 -9 -31 -19 -5 -11 -23 -22 -39 -26 -16 -3 -37 -15 -47 -26 -9 -10
-27 -19 -39 -19 -12 0 -33 -9 -47 -19 -13 -11 -38 -23 -54 -27 -16 -3 -34 -13
-41 -21 -7 -9 -33 -19 -59 -24 -26 -5 -57 -18 -69 -29 -12 -11 -33 -20 -48
-20 -14 0 -41 -9 -59 -19 -18 -11 -53 -22 -78 -26 -24 -4 -56 -15 -70 -25 -14
-10 -49 -21 -79 -24 -29 -3 -65 -13 -78 -22 -14 -9 -62 -19 -111 -24 -48 -5
-102 -16 -120 -25 -27 -14 -71 -18 -210 -22 -127 -4 -183 -9 -199 -19 -31 -19
-257 -19 -304 0 -21 8 -95 16 -194 20 -163 6 -200 11 -223 29 -7 5 -53 14
-104 18 -54 5 -101 15 -116 25 -14 9 -54 20 -90 24 -40 5 -69 14 -74 23 -4 9
-31 18 -60 22 -29 4 -61 14 -70 22 -10 9 -38 19 -63 24 -26 5 -58 18 -72 29
-14 11 -38 20 -53 20 -15 0 -35 8 -44 19 -9 10 -35 21 -56 25 -23 4 -43 14
-49 25 -6 10 -24 21 -41 25 -18 3 -43 15 -57 26 -14 11 -34 20 -44 20 -10 0
-23 9 -29 20 -6 11 -19 20 -30 20 -10 0 -32 11 -48 25 -17 14 -37 25 -45 25
-8 0 -21 7 -28 17 -8 9 -29 22 -47 30 -17 7 -32 17 -32 22 0 8 -30 30 -92 67
-10 6 -29 21 -42 33 -12 11 -26 21 -30 21 -5 0 -19 10 -31 22 -13 13 -45 41
-71 63 -27 22 -60 52 -75 68 -15 15 -32 27 -37 27 -12 0 -72 67 -72 80 0 6 -7
10 -15 10 -9 0 -18 7 -21 15 -3 8 -46 55 -95 104 -49 49 -89 92 -89 96 0 5 -9
17 -21 29 -62 64 -110 124 -115 144 -4 12 -15 27 -25 33 -11 5 -19 18 -19 29
0 11 -11 27 -25 36 -14 9 -25 25 -25 35 0 10 -11 30 -25 45 -14 15 -25 33 -25
40 0 7 -9 18 -20 24 -11 6 -20 21 -20 34 0 12 -11 33 -25 46 -14 14 -25 35
-25 50 0 16 -10 35 -25 48 -16 14 -25 32 -25 52 0 18 -7 33 -19 39 -11 6 -21
26 -24 48 -4 21 -16 46 -27 55 -11 10 -20 30 -20 46 0 15 -11 43 -25 62 -16
22 -25 47 -25 70 0 24 -7 43 -19 54 -12 11 -21 38 -26 74 -4 31 -14 65 -22 74
-8 9 -19 49 -23 88 -5 46 -14 78 -26 91 -14 15 -20 43 -24 112 -4 55 -13 104
-23 122 -39 73 -39 944 0 1020 9 17 19 73 23 128 5 68 12 103 24 116 9 10 20
48 25 90 5 40 16 80 24 89 8 9 18 41 22 69 4 29 15 63 24 75 10 13 21 43 24
66 3 24 15 54 26 66 12 12 21 34 21 48 0 14 8 36 19 49 10 13 21 40 25 60 3
20 15 44 26 54 11 10 20 28 20 40 0 12 11 32 25 45 14 13 25 33 25 45 0 12 9
30 19 39 11 10 23 31 26 47 4 16 15 34 26 39 10 6 19 19 19 29 0 9 11 28 25
41 14 13 25 30 25 38 0 13 9 26 67 101 13 16 23 34 23 40 0 6 11 18 25 27 14
9 25 23 25 30 0 8 7 17 15 20 12 5 34 34 71 97 6 10 21 25 33 33 11 8 21 20
21 25 0 14 290 298 321 314 15 8 29 21 33 30 3 8 17 20 31 25 14 5 25 14 25
19 0 6 12 17 28 25 15 8 45 31 67 51 22 20 50 38 62 42 13 3 28 14 34 24 5 11
16 19 23 19 7 0 23 11 36 25 13 14 31 25 40 25 9 0 25 9 35 20 10 11 24 20 31
20 7 0 26 11 42 25 17 14 35 25 42 25 7 0 25 11 42 25 16 14 41 25 54 25 14 0
27 7 30 15 3 8 25 20 48 27 22 6 48 18 57 25 9 8 34 19 55 25 21 5 49 19 63
29 13 11 38 19 56 19 18 0 39 8 49 19 10 11 38 21 68 25 28 4 62 16 76 27 14
11 40 19 61 19 20 0 54 9 75 21 23 12 71 24 115 29 42 4 89 15 104 23 18 9 73
18 145 22 65 4 123 12 130 18 27 21 94 25 388 24 216 -2 305 -5 315 -14z"></path>
<path d="M3200 6500 c-279 -59 -453 -140 -638 -299 -75 -64 -184 -200 -231
-286 -12 -22 -25 -47 -30 -55 -11 -18 -49 -102 -86 -190 -36 -85 -36 -84 -103
-105 -107 -34 -170 -92 -216 -203 -23 -55 -26 -74 -26 -191 0 -121 2 -133 29
-195 37 -80 101 -147 178 -184 l58 -27 1365 0 1365 0 63 25 c69 27 120 71 173
147 l34 48 0 185 c0 180 -1 186 -25 226 -55 89 -120 145 -191 164 -53 14 -109
54 -109 78 0 9 -11 40 -25 67 -13 28 -25 56 -25 63 0 22 -102 194 -161 272
-79 105 -184 203 -294 275 -55 36 -221 113 -276 129 -30 8 -74 21 -99 29 -205
65 -497 76 -730 27z"></path>
<path d="M2553 4340 c-54 -13 -146 -53 -190 -82 -75 -51 -156 -149 -186 -226
-23 -59 -27 -85 -27 -166 0 -86 3 -105 32 -173 52 -124 141 -201 293 -255 106
-37 202 -38 302 -3 76 26 113 47 245 136 115 78 168 102 277 129 175 43 408
23 551 -47 30 -15 91 -54 135 -88 129 -96 140 -103 211 -130 173 -65 424 -8
554 126 67 69 99 141 108 239 10 123 -2 209 -38 274 -63 112 -147 184 -280
243 l-65 28 -945 2 c-520 1 -959 -2 -977 -7z m479 -131 c62 -13 121 -45 161
-87 21 -22 30 -42 34 -83 8 -83 -9 -129 -72 -192 -64 -63 -113 -94 -211 -133
-63 -25 -81 -28 -209 -28 -160 -1 -199 11 -269 83 -32 32 -40 49 -43 88 -7 68
10 121 57 175 121 140 360 217 552 177z m1184 -3 c45 -8 99 -24 120 -35 21
-12 44 -21 51 -21 17 0 131 -94 159 -131 13 -18 31 -55 40 -82 15 -46 15 -54
0 -102 -18 -57 -37 -78 -109 -119 -41 -24 -64 -29 -145 -33 -135 -8 -214 7
-319 59 -97 47 -147 87 -196 157 -28 40 -32 54 -32 112 0 57 3 69 29 100 83
98 211 128 402 95z"></path>
<path d="M2399 2273 c-25 -16 -54 -33 -65 -40 -56 -35 -317 -178 -403 -221
-14 -7 -33 -17 -41 -22 -8 -5 -54 -30 -102 -55 -137 -71 -266 -139 -296 -156
-15 -8 -49 -27 -77 -42 -27 -15 -57 -32 -65 -37 -60 -40 -151 -93 -182 -108
-21 -9 -38 -21 -38 -27 0 -10 16 -29 160 -184 123 -134 310 -293 492 -419 238
-165 599 -334 856 -402 40 -11 80 -24 90 -29 9 -5 51 -14 92 -21 41 -7 85 -16
98 -21 43 -16 463 -59 576 -59 61 0 152 5 201 10 50 5 142 15 205 21 63 6 151
19 195 29 225 52 325 79 420 115 39 14 84 31 100 37 179 62 502 238 672 365
43 32 90 66 104 75 26 16 214 184 278 248 31 30 127 133 193 208 22 24 18 52
-7 52 -9 0 -28 8 -43 18 -61 42 -113 73 -232 138 -69 38 -139 77 -155 86 -17
9 -88 47 -160 83 -71 37 -152 80 -180 95 -27 16 -61 33 -75 39 -14 6 -34 16
-45 23 -11 6 -36 20 -55 31 -37 20 -87 48 -197 111 -37 21 -77 47 -88 56 -11
10 -33 21 -50 24 -25 5 -38 -1 -80 -35 -227 -184 -539 -321 -795 -350 -324
-35 -603 15 -885 160 -78 40 -208 120 -255 158 -70 56 -94 73 -104 73 -7 0
-32 -12 -57 -27z"></path>
</g>
</svg>